PathFileType	4	(X/Y/Z)	5_coords_data.trc
DataRate	CameraRate	NumFrames	NumMarkers	Units	OrigDataRate	OrigDataStartFrame	OrigNumFrames
30.0	30.0	8	21	m	30.0	10	77
Frame#	Time	THUMB_TIP	THUMB_IP	THUMB_MCP	THUMB_CMC	INDEX_TIP	INDEX_DIP	INDEX_PIP	INDEX_MCP	MIDDLE_TIP	MIDDLE_DIP	MIDDLE_PIP	MIDDLE_MCP	RING_TIP	RING_DIP	RING_PIP	RING_MCP	PINKY_TIP	PINKY_DIP	PINKY_PIP	PINKY_MCP	WRIST
X1	Y1	Z1	X2	Y2	Z2	X3	Y3	Z3	X4	Y4	Z4	X5	Y5	Z5	X6	Y6	Z6	X7	Y7	Z7	X8	Y8	Z8	X9	Y9	Z9	X10	Y10	Z10	X11	Y11	Z11	X12	Y12	Z12	X13	Y13	Z13	X14	Y14	Z14	X15	Y15	Z15	X16	Y16	Z16	X17	Y17	Z17	X18	Y18	Z18	X19	Y19	Z19	X20	Y20	Z20	X21	Y21	Z21
8	0.2999999999999987	0.5203590840906652	-0.008129275806005865	-0.10100054786068438	0.5104358686797641	-0.01030607070747902	-0.1216110151010401	0.4793740266845061	-0.012297440373793322	-0.12173915062972256	0.47239386890973445	-0.022065213972482622	-0.07877686488554868	0.49237589645369584	-0.02242786046369205	-0.09985614291164266	0.5020171833356349	-0.009637026571926888	-0.10830837076076161	0.5153638873010408	0.00854777474724211	-0.1194073944674743	0.4896616590123648	0.03844461754137696	-0.1033073837240128	0.490880993559343	-0.016129871240739502	-0.08930223019726335	0.5076011256943984	-0.010282598936503962	-0.09307669545560224	0.527244628934077	0.009087426423188938	-0.10247586818715704	0.5007000845550159	0.0406900393588146	-0.08536417802080906	0.4988402256710701	-0.01535191977818784	-0.07281016488010524	0.514074029534137	-0.00790198611408155	-0.07892814724866654	0.5339088655447963	0.00593349104416363	-0.0848727945244877	0.5127393908772643	0.03669198027408982	-0.06936507010749984	0.5033870692085682	-0.018639904416340114	-0.06018156797855613	0.5182785948540172	-0.023113031343196977	-0.06733933295424273	0.5353877912150109	-0.01134481833871348	-0.07043716793404124	0.5229386003862179	0.019007180153550185	-0.05544859607966081	0.4622830810018609	-0.023011742144276925	-0.051989820119430985
9	0.33333333333333187	0.5203005997895459	-0.0080851565069886	-0.10105868786685057	0.5103735596265611	-0.010163651755868641	-0.12167745919549354	0.47931247459711745	-0.012169784057629363	-0.12174401730176058	0.4723328047522797	-0.0220081278633244	-0.07879775786024454	0.49228960093543905	-0.022306251365834973	-0.09990216620077598	0.5019426769965274	-0.009518621689291629	-0.10834578212136545	0.5153216477549153	0.008659548522616523	-0.11941678488503141	0.48962035397144854	0.03851708992664571	-0.10324252097094186	0.4908381140373631	-0.016110779938117825	-0.08939269998776542	0.5075530788400588	-0.010207202628070067	-0.09310184093802984	0.5272089361308346	0.009163020944870759	-0.10247474139087492	0.5006662222052184	0.04073859629197657	-0.08531038005809737	0.4988641189903531	-0.015410029773905265	-0.07279710411856567	0.5140285761536908	-0.00784077002375183	-0.0789408444919868	0.5338784177752802	0.00597272586916342	-0.08488652341152425	0.5127325141833285	0.036713377700787975	-0.06931141762547173	0.5033769470522699	-0.01861717954767017	-0.060219926411443275	0.5182481050475551	-0.023127603519134343	-0.06739660638737269	0.5353640288630679	-0.011367333173066041	-0.07048743351436426	0.5229623968390413	0.018973727922022898	-0.055437417376009934	0.4622830810018609	-0.023011742144276925	-0.051989820119430985
10	0.3666666666666651	0.5203111274834439	-0.00802523237978503	-0.10107483127929072	0.5103420009666598	-0.01005738772863285	-0.12167791020285218	0.47927835459357626	-0.012023895424232323	-0.12173007811598893	0.47230766537839775	-0.021962351307215577	-0.07880541636394488	0.4923008733745705	-0.022286999868818436	-0.09995355958038048	0.5019261665743887	-0.009452703712735655	-0.10835799727694868	0.5153245210369208	0.008726982238408953	-0.11940303912449711	0.48963489508628943	0.03856594712702999	-0.1031760435032405	0.4908088505508703	-0.016056741433762567	-0.08941743614277901	0.5075305511901876	-0.010162001901118711	-0.09311023637719996	0.5272096291481067	0.009197481203282676	-0.1024565647823302	0.5006868261602376	0.0407621649021046	-0.08524146717412528	0.4989021799861536	-0.01547716149013778	-0.07279010436648667	0.5140176999719158	-0.0078058938400698	-0.07892791408991764	0.5338785661760441	0.005986628761494361	-0.08488545493384445	0.5127539080376518	0.03671241845519202	-0.06925230105387772	0.5033852733373526	-0.018692117893559956	-0.06022572657796535	0.518247027019912	-0.02317114556809341	-0.0674414447383216	0.535365441466249	-0.011412618416104747	-0.07052510247863397	0.5230016649250742	0.018918088981688896	-0.05542315990857616	0.462283081001861	-0.023011742144276925	-0.051989820119430985
11	0.39999999999999825	0.5202686096155856	-0.008012567078949595	-0.10105550255910845	0.5103156554962427	-0.00998336458928073	-0.1216723563799883	0.479250101708924	-0.011919627990545245	-0.1217198108648104	0.4722920605876182	-0.021930771200969756	-0.07880999059748012	0.49243362692032033	-0.022282093560024974	-0.09987717069772079	0.5019100028995501	-0.009389475949829307	-0.1083611974219566	0.5153394671923647	0.008775305044337212	-0.11939297213149414	0.48967135602991374	0.03860320296635844	-0.10311167399818952	0.49080487725947175	-0.01606324455018915	-0.08941572352180088	0.5075175975134667	-0.010143110857781856	-0.09310855424845665	0.5272186786402117	0.009204074881844382	-0.1024339687911894	0.5007304618461639	0.04077212709456296	-0.08517186082122802	0.4988963473962127	-0.015374615614948572	-0.07272345471252094	0.514033730071	-0.007793150120992354	-0.078918696977437	0.5339017134151225	0.005987873629573093	-0.08487911652844365	0.5127964802149275	0.036695871649464085	-0.06918488755165829	0.5034177649717299	-0.018741922959622515	-0.0602359944589919	0.5182576494178751	-0.023224770112292403	-0.06749422503061574	0.5353890481658725	-0.011478164482864095	-0.07055109469152723	0.5230574452314299	0.018839376955478104	-0.055396501288810976	0.4622830810018609	-0.023011742144276925	-0.05198982011943097
12	0.43333333333333146	0.5203176749015853	-0.007979390131681918	-0.10107810318226779	0.5103101369264893	-0.009926174269553778	-0.1216708012861478	0.4792430931788485	-0.011838564759607206	-0.12171023979174178	0.472287956959891	-0.021892485825773522	-0.0788099513151937	0.49250653141758727	-0.022263136225649127	-0.09984683821965859	0.5019239818967147	-0.009342635627190843	-0.10835402875228556	0.515382735536587	0.008814941610823523	-0.11936194282838411	0.48974271199322505	0.03863924356966697	-0.10302987929178313	0.49082121286630276	-0.016112808900282882	-0.08946275255043898	0.5075267292889127	-0.0101442943872877	-0.09311001941236191	0.5272570493169504	0.009188538254983891	-0.10240332902827007	0.5008055647552514	0.040764479734386516	-0.08509937557330666	0.49897121355871343	-0.015452465773281854	-0.07265411035004984	0.5140681274983318	-0.00783721060062359	-0.0789063961844515	0.5339355944479929	0.005945458193857389	-0.08486473294111149	0.5128674842931459	0.03665392909430776	-0.06912162703854459	0.5034173843508144	-0.01899611464580253	-0.06021438272037444	0.518276744270302	-0.02330876035503382	-0.06753561962200327	0.535410505495302	-0.011559161217371106	-0.07056764293802847	0.5231197494668092	0.01875125860992255	-0.05536569513055073	0.4622830810018609	-0.023011742144276925	-0.05198982011943097
13	0.4666666666666647	0.5203109276169435	-0.007959573802926445	-0.10106527193255349	0.5102898133740278	-0.009868619894292219	-0.12165490068956294	0.4792205215911147	-0.011744037448809586	-0.12169868544057906	0.47229226016539894	-0.021851362134816532	-0.07880659781000815	0.49264002204652346	-0.02227053360511233	-0.09976937024811927	0.5019173779540403	-0.009283454608305042	-0.10832895239305763	0.5154171791211367	0.008855994670599276	-0.11931647173579013	0.48981063399582037	0.0386841383116312	-0.10293896314397116	0.49082054222528215	-0.016091861625057602	-0.08947018383949931	0.5075394401863353	-0.01014758465522092	-0.093095652398702	0.5272951909890433	0.009170826472518323	-0.10236489463962667	0.5008829640359654	0.04075802718644356	-0.08502156913852077	0.49888043031153917	-0.01517179815098213	-0.07257486766309473	0.5141006931439815	-0.007849056724762438	-0.07887733204745295	0.53398244827348	0.005909666212719822	-0.08484334705751288	0.5129375039229442	0.03661259999159128	-0.06905851228951151	0.5034470262820697	-0.019083694746657387	-0.06019856984156749	0.5182959878527345	-0.023362530747177312	-0.0675606281647254	0.5354407016035739	-0.011625314917899865	-0.0705786695790753	0.5231749064406628	0.018673407463133063	-0.05533330496885343	0.4622830810018608	-0.023011742144276925	-0.051989820119430985
14	0.4999999999999978	0.5202852819703917	-0.007961148796155948	-0.10105194778352089	0.5102748989751319	-0.009835192644734314	-0.12165001060364601	0.479203445842422	-0.01167451729514557	-0.12169105999101405	0.4722921259907472	-0.021820125379954924	-0.07880527802895464	0.49280949399333585	-0.022266755451216036	-0.09965295107879807	0.5019471428794007	-0.009258110247308604	-0.10832927073599441	0.5154654928470723	0.008880024593264313	-0.11929613499414705	0.48987647630872233	0.03870254128782158	-0.10288102535080565	0.4907770073434783	-0.01600512275442012	-0.08954458971563975	0.5075493442878626	-0.010165758167891115	-0.09309290405481943	0.5273241941010617	0.009143166440117811	-0.10234116309896682	0.500943918877747	0.04074487197517096	-0.08497564532903079	0.4987614635775458	-0.014857068172042909	-0.0725044773077336	0.5141262395404721	-0.007885883106447888	-0.07885477166235312	0.5340108497776646	0.005864684728477232	-0.08483006570801083	0.51299594850871	0.03657438119894629	-0.0690183832754626	0.503419605634865	-0.019299924782092415	-0.060151140811934165	0.5182813690873884	-0.023425379311040162	-0.06757465830775929	0.5354428646275218	-0.011711091035228494	-0.07058639203057693	0.5232302405105862	0.018594213039648366	-0.05531145150343554	0.4622830810018609	-0.023011742144276925	-0.05198982011943097
15	0.533333333333331	0.5202551354996913	-0.007978044977118182	-0.10102561354654312	0.5102693817650201	-0.009801308207107784	-0.12164018202479823	0.47919629021500265	-0.011612786588151458	-0.12167926653897966	0.4723038673971717	-0.021798355608338538	-0.07879991613070919	0.49294976690907444	-0.02229712473944212	-0.09963478890535972	0.5019957629385002	-0.009241689742385706	-0.10833683308320957	0.5155307019432234	0.008890392544266379	-0.11929323993438574	0.4899407931129116	0.038697718748963994	-0.10285195152431638	0.4907906194276709	-0.01594259421539712	-0.0895610651553889	0.5075909180088434	-0.010181727665933615	-0.09310541053679933	0.5273872337589626	0.009113781521406628	-0.10233572786194312	0.5010178827298234	0.04071335905166307	-0.08494975802384241	0.49857870322113795	-0.01438689955274497	-0.07247514140248375	0.5141669373783087	-0.0079591099536378	-0.07885405014386183	0.5340542359678929	0.005782755864178202	-0.08484040610169284	0.513078510397089	0.03650754505614906	-0.06900604157742876	0.5033860551151665	-0.01955585168359375	-0.060125943337644955	0.5182721616641471	-0.023500865916169733	-0.06759860648522298	0.5354545488440203	-0.011818088125136073	-0.07061361774328857	0.5232949342197242	0.018498671558631274	-0.05531913163013971	0.4622830810018609	-0.023011742144276925	-0.051989820119430985
